<svg width="152.46875px" height="137.6px" xmlns="http://www.w3.org/2000/svg" viewBox="173.765625 6.200000000000003 152.46875 137.6" style="background: rgba(0, 0, 0, 0);" preserveAspectRatio="xMidYMid"><defs><filter id="editing-extrusion" x="-100%" y="-100%" width="300%" height="300%"><feFlood result="color1" flood-color="#444"></feFlood><feConvolveMatrix order="3,3" divisor="1" kernelMatrix="1 0 0 0 1 0 0 0 1" in="SourceAlpha" result="extrude"></feConvolveMatrix><feComposite in="color1" in2="extrude" result="comp-extrude" operator="in"></feComposite><feOffset dx="1.5" dy="1.5" in="comp-extrude" result="offset-extrude"></feOffset><feMerge><feMergeNode in="offset-extrude"></feMergeNode><feMergeNode in="SourceGraphic"></feMergeNode></feMerge></filter></defs><g filter="url(#editing-extrusion)"><g transform="translate(198.4150104522705, 97.01499938964844)"><path d="M23.81-44.03L23.81-44.03Q46.91-44.03 46.91-22.02L46.91-22.02L46.91-22.02Q46.91 0 23.81 0L23.81 0L4.74 0L4.74-44.03L23.81-44.03ZM18.88-33.47L18.88-10.56L23.55-10.56L23.55-10.56Q32.45-10.56 32.45-20.10L32.45-20.10L32.45-23.94L32.45-23.94Q32.45-33.47 23.55-33.47L23.55-33.47L18.88-33.47ZM82.88 0L66.50 0L50.88-44.03L65.98-44.03L74.82-14.59L75.07-14.59L83.97-44.03L98.43-44.03L82.88 0Z" fill="#ccc"></path></g></g><style>text {
  font-size: 64px;
  font-family: Arial Black;
  dominant-baseline: central;
  text-anchor: middle;
}</style></svg>